HIERARCHY
ROOT Hips
{
    OFFSET 0.000000 0.000000 0.000000
    CHANNELS 6 Xposition Yposition Zposition Zrotation Xrotation Yrotation
    JOINT Spine
    {
        OFFSET -0.000000 7.761268 0.000000
        CHANNELS 3 Zrotation Xrotation Yrotation
        JOINT Spine1
        {
            OFFSET -0.000000 24.785763 0.000000
            CHANNELS 3 Zrotation Xrotation Yrotation
            JOINT Neck
            {
                OFFSET -0.000000 24.683973 2.243998
                CHANNELS 3 Zrotation Xrotation Yrotation
                JOINT Head
                {
                    OFFSET -0.000000 13.250945 -1.892992
                    CHANNELS 3 Zrotation Xrotation Yrotation
                    End Site
                    {
                        OFFSET -0.000000 23.662401 0.000000
                    }
                }
            }
            JOINT LeftShoulder
            {
                OFFSET 3.794134 23.444212 -0.177979
                CHANNELS 3 Zrotation Xrotation Yrotation
                JOINT LeftArm
                {
                    OFFSET 9.211075 0.000000 0.000000
                    CHANNELS 3 Zrotation Xrotation Yrotation
                    JOINT LeftForeArm
                    {
                        OFFSET 34.352840 0.000000 0.000000
                        CHANNELS 3 Zrotation Xrotation Yrotation
                        JOINT LeftHand
                        {
                            OFFSET 25.460636 0.000000 0.000000
                            CHANNELS 3 Zrotation Xrotation Yrotation
                            End Site
                            {
                                OFFSET 14.197442 0.000000 0.000000
                            }
                        }
                    }
                }
            }
            JOINT RightShoulder
            {
                OFFSET -3.767389 23.444212 -0.177979
                CHANNELS 3 Zrotation Xrotation Yrotation
                JOINT RightArm
                {
                    OFFSET -9.211075 0.000000 0.000000
                    CHANNELS 3 Zrotation Xrotation Yrotation
                    JOINT RightForeArm
                    {
                        OFFSET -34.352840 0.000000 0.000000
                        CHANNELS 3 Zrotation Xrotation Yrotation
                        JOINT RightHand
                        {
                            OFFSET -25.460636 0.000000 0.000000
                            CHANNELS 3 Zrotation Xrotation Yrotation
                            End Site
                            {
                                OFFSET -14.197442 0.000000 0.000000
                            }
                        }
                    }
                }
            }
        }
    }
    JOINT LeftUpLeg
    {
        OFFSET 9.464960 0.000000 0.000000
        CHANNELS 3 Zrotation Xrotation Yrotation
        JOINT LeftLeg
        {
            OFFSET -0.000000 -36.073700 0.000000
            CHANNELS 3 Zrotation Xrotation Yrotation
            JOINT LeftFoot
            {
                OFFSET -0.000000 -40.808823 0.000000
                CHANNELS 3 Zrotation Xrotation Yrotation
                JOINT LeftToeBase
                {
                    OFFSET -0.000000 -6.152224 14.197442
                    CHANNELS 3 Zrotation Xrotation Yrotation
                    End Site
                    {
                        OFFSET -0.000000 0.000000 3.785984
                    }
                }
            }
        }
    }
    JOINT RightUpLeg
    {
        OFFSET -9.464960 0.000000 0.000000
        CHANNELS 3 Zrotation Xrotation Yrotation
        JOINT RightLeg
        {
            OFFSET -0.000000 -36.073700 0.000000
            CHANNELS 3 Zrotation Xrotation Yrotation
            JOINT RightFoot
            {
                OFFSET -0.000000 -40.808823 0.000000
                CHANNELS 3 Zrotation Xrotation Yrotation
                JOINT RightToeBase
                {
                    OFFSET -0.000000 -6.152224 14.197442
                    CHANNELS 3 Zrotation Xrotation Yrotation
                    End Site
                    {
                        OFFSET -0.000000 0.000000 3.785984
                    }
                }
            }
        }
    }
}
MOTION
Frames:    9
Frame Time:    0.004000
-16.583006    121.275345    -84.956512    1.589460    -5.260736    17.425831    9.719739    1.720568    -0.601415    0.232067    8.617755    -0.473412    1.417504    27.809553    -7.184173    -1.678139    25.815977    -7.174583    -11.833735    23.378492    -2.236455    -41.471958    40.901943    -15.297897    1.096610    -3.950355    -33.639942    5.915137    -3.271225    6.751642    8.918755    23.822994    -3.544066    36.603397    47.533276    20.842161    -9.370742    -18.919029    43.110989    -11.476167    -14.455036    -9.448425    1.201124    -24.953106    5.831818    -5.661489    80.939125    7.523600    6.710045    -6.593081    3.882627    0.000000    0.000000    0.000000    -5.226541    0.202742    -9.272364    9.952991    8.955946    3.277230    -3.297096    -10.250521    -20.883448    0.000000    0.000000    0.000000    
-16.537956    121.362030    -84.854271    1.715481    -5.270549    17.281061    9.585841    1.666219    -0.523733    0.225073    8.648207    -0.401791    1.321924    27.848383    -7.151808    -1.601712    25.655216    -7.160490    -11.874857    23.388174    -2.194818    -41.464546    40.967316    -15.315578    1.112628    -3.967340    -33.641026    5.990761    -3.278476    6.760180    8.908361    23.862537    -3.531679    36.725002    47.574013    20.824047    -9.298661    -18.844101    43.089710    -11.361547    -14.421680    -9.403336    1.105487    -25.123810    5.877876    -5.964797    80.917442    7.817386    6.561670    -6.857067    3.840355    0.000000    0.000000    0.000000    -5.245701    0.574989    -9.271776    9.809251    8.447475    3.352675    -3.077950    -9.999919    -20.776262    0.000000    0.000000    0.000000    
-16.470655    121.436821    -84.752228    1.868217    -5.319829    17.185568    9.505730    1.656193    -0.479918    0.134128    8.669541    -0.353246    1.307951    27.715052    -7.122181    -1.585709    25.690226    -7.133884    -11.899303    23.374456    -2.161834    -41.499332    40.985043    -15.274872    1.097145    -3.976126    -33.656605    6.023809    -3.289157    6.772155    8.946338    23.932756    -3.546236    36.800999    47.563591    20.839947    -9.203760    -18.741835    43.076202    -11.344611    -14.360108    -9.363235    0.925290    -25.245026    5.780917    -6.389451    80.870728    8.249310    6.396387    -6.818742    3.706512    0.000000    0.000000    0.000000    -5.323195    0.989339    -9.355519    9.713967    7.973354    3.408802    -2.929044    -9.802326    -20.648392    0.000000    0.000000    0.000000    
-16.424141    121.512840    -84.652306    1.994306    -5.323250    17.058935    9.365396    1.615096    -0.410483    0.136183    8.671832    -0.289298    1.241804    27.672680    -7.097879    -1.535595    25.590160    -7.122447    -11.950538    23.428820    -2.125189    -41.480400    40.979733    -15.308437    1.099334    -4.009740    -33.661228    6.043877    -3.319708    6.794486    8.950538    23.972179    -3.585987    36.783226    47.830761    20.891056    -9.209456    -18.812801    43.090183    -11.338842    -14.421926    -9.443527    0.802061    -25.429756    5.759726    -6.290692    80.834618    7.905517    6.428212    -7.005859    3.648597    0.000000    0.000000    0.000000    -5.326823    1.354496    -9.361609    9.554502    7.446791    3.460381    -2.789969    -9.570554    -20.582575    0.000000    0.000000    0.000000    
-16.378017    121.584846    -84.555832    2.128111    -5.304180    16.926712    9.219868    1.555780    -0.341682    0.120710    8.679094    -0.226050    1.213963    27.640795    -7.103287    -1.567497    25.444469    -7.130886    -12.006773    23.405653    -2.095525    -41.524551    40.974941    -15.243167    1.085882    -4.035269    -33.669216    6.123662    -3.342849    6.825466    8.951381    24.026915    -3.613479    36.823231    47.982471    20.930866    -9.178370    -18.825315    43.097202    -11.333255    -14.444460    -9.464280    0.612995    -25.642990    5.801890    -6.070250    80.760704    7.972102    6.551535    -7.175924    3.456483    0.000000    0.000000    0.000000    -5.362649    1.684293    -9.272368    9.438325    6.930609    3.303901    -2.675091    -9.350643    -20.392265    0.000000    0.000000    0.000000    
-16.331657    121.651100    -84.460983    2.264128    -5.300743    16.804699    9.144181    1.500072    -0.287711    -0.063609    8.691624    -0.163976    1.331598    27.622116    -7.100365    -1.635889    25.299568    -7.111270    -11.909668    23.502117    -2.045142    -41.531246    40.896965    -15.342587    1.082554    -4.057213    -33.666161    6.086272    -3.367682    6.832952    9.045704    24.091560    -3.593662    36.860817    48.112617    20.942249    -9.096916    -18.838352    43.127365    -11.541402    -14.453247    -9.630042    0.521158    -25.789703    5.713046    -6.696008    80.657837    8.143641    5.917840    -7.251417    3.595075    0.000000    0.000000    0.000000    -5.393481    2.110479    -9.118552    9.334188    6.297150    3.701022    -2.678899    -9.070060    -20.759504    0.000000    0.000000    0.000000    
-16.284004    121.718452    -84.355003    2.396834    -5.345706    16.684528    9.061614    1.436671    -0.245126    -0.139443    8.827093    -0.121393    1.229090    27.493458    -7.021313    -1.565452    25.223612    -7.049084    -11.976173    23.332678    -1.995491    -41.584541    40.977959    -15.218135    1.064659    -4.067216    -33.649384    6.114267    -3.381803    6.829523    9.071757    24.075850    -3.588675    36.945843    48.141590    20.952538    -9.020201    -18.759699    43.111359    -11.550372    -14.400723    -9.653311    0.410708    -25.872889    5.643635    -7.777753    80.452080    9.392462    5.757169    -7.379477    3.537546    0.000000    0.000000    0.000000    -5.415145    2.497538    -9.035267    9.206844    5.818099    3.802758    -2.562391    -8.810985    -20.771740    0.000000    0.000000    0.000000    
-16.243189    121.780457    -84.265709    2.504094    -5.316630    16.567848    8.923791    1.382525    -0.178536    -0.130241    8.803155    -0.061024    1.164258    27.401976    -6.997756    -1.552888    25.192926    -7.034254    -12.020745    23.388851    -1.955786    -41.564095    40.988354    -15.281349    1.101515    -4.089168    -33.622593    6.099708    -3.394306    6.819855    9.056242    24.132561    -3.628419    37.125687    48.026890    20.927992    -8.879450    -18.586592    43.101788    -11.482033    -14.289521    -9.601673    0.287426    -26.078876    5.589256    -8.001809    80.278435    9.582849    6.091798    -7.555893    3.314790    0.000000    0.000000    0.000000    -5.428057    2.768625    -8.878202    9.085855    5.367294    3.794368    -2.508116    -8.570131    -20.759140    0.000000    0.000000    0.000000    
-16.199383    121.840157    -84.171120    2.616612    -5.312191    16.458187    8.839751    1.328248    -0.134804    -0.237772    8.825908    -0.015359    1.177093    27.324802    -6.974397    -1.559719    25.104801    -7.010152    -12.024321    23.517471    -1.845983    -41.445251    40.950695    -15.482599    1.116482    -4.116066    -33.586548    6.134368    -3.414026    6.837973    9.126771    24.126974    -3.622478    37.220047    48.131477    20.878969    -8.843618    -18.569363    43.075840    -11.382978    -14.298633    -9.575467    0.106333    -26.236811    5.559078    -7.210357    80.137398    8.727067    5.773401    -7.686217    3.135236    0.000000    0.000000    0.000000    -5.435863    3.074551    -8.724214    8.979300    4.916261    3.753720    -2.519547    -8.335437    -20.799570    0.000000    0.000000    0.000000    
